<svg width="25" height="25" viewBox="0 0 25 25" fill="none" xmlns="http://www.w3.org/2000/svg">
<path d="M22.6212 0.620117H2.37504C1.40682 0.620117 0.621094 1.38737 0.621094 2.33216V22.6658C0.621094 23.6119 1.40682 24.3801 2.37504 24.3801H22.6212C23.5901 24.3801 24.3811 23.6119 24.3811 22.6658V2.33216C24.3811 1.38737 23.5901 0.620117 22.6212 0.620117ZM7.66791 20.8669H4.14219V9.52847H7.66791V20.8669ZM5.90505 7.97813C5.63669 7.97813 5.37096 7.92525 5.12304 7.82251C4.87512 7.71977 4.64988 7.56919 4.46018 7.37937C4.27048 7.18955 4.12004 6.9642 4.01747 6.71622C3.91489 6.46824 3.86218 6.20247 3.86235 5.93411C3.86235 5.39239 4.07755 4.87287 4.4606 4.48982C4.84365 4.10677 5.36318 3.89157 5.90489 3.89157C6.4466 3.89157 6.96613 4.10677 7.34918 4.48982C7.73223 4.87287 7.94742 5.39239 7.94742 5.93411C7.94742 6.47593 7.7323 6.99558 7.34933 7.37886C6.96636 7.76215 6.44688 7.97769 5.90505 7.97813ZM20.8666 20.8669H17.3465V15.3533C17.3465 14.0379 17.3207 12.3467 15.5147 12.3467C13.6805 12.3467 13.401 13.7792 13.401 15.2579V20.8673H9.87825V9.52847H13.2591V11.0768H13.3073C13.7779 10.1858 14.9276 9.24566 16.6423 9.24566C20.2082 9.24566 20.8669 11.5933 20.8669 14.6474V20.8669H20.8666Z" fill="white"/>
</svg>
