<svg width="25" height="25" viewBox="0 0 25 25" fill="none" xmlns="http://www.w3.org/2000/svg">
<path d="M23.0697 0.620117H1.93251C1.5847 0.620117 1.25114 0.758284 1.0052 1.00422C0.759261 1.25016 0.621094 1.58373 0.621094 1.93154V23.069C0.621181 23.4168 0.759387 23.7503 1.00532 23.9961C1.25125 24.242 1.58476 24.3801 1.93251 24.3801H13.3119V15.1791H10.2155V11.5933H13.3119V8.94866C13.3119 5.87966 15.1863 4.20887 17.924 4.20887C19.2354 4.20887 20.3624 4.30622 20.691 4.35011V7.55738L18.7922 7.55837C17.3033 7.55837 17.0152 8.26589 17.0152 9.30407V11.5936H20.566L20.1036 15.1794H17.0152V24.3801H23.07C23.4178 24.38 23.7512 24.2418 23.9971 23.9959C24.243 23.75 24.3811 23.4164 24.3811 23.0687V1.93154C24.3811 1.58373 24.2429 1.25016 23.997 1.00422C23.7511 0.758284 23.4175 0.620117 23.0697 0.620117Z" fill="white"/>
</svg>
