<svg width="28" height="21" viewBox="0 0 28 21" fill="none" xmlns="http://www.w3.org/2000/svg">
<path d="M27.0912 2.61945C26.1109 3.04095 25.0711 3.31748 24.0064 3.43983C25.1278 2.78854 25.9671 1.76369 26.3677 0.556288C25.3135 1.16367 24.16 1.59137 22.9571 1.82085C22.4546 1.30058 21.8473 0.886025 21.1729 0.602882C20.4985 0.319739 19.7714 0.174038 19.0366 0.174808C16.0704 0.174808 13.6653 2.50857 13.6653 5.38815C13.6653 5.79636 13.7129 6.19467 13.8047 6.57648C9.34046 6.35901 5.38286 4.28331 2.73358 1.12884C2.2559 1.92449 2.0049 2.82915 2.00632 3.75003C2.00561 4.60836 2.22337 5.45357 2.64023 6.21056C3.05709 6.96755 3.66016 7.61288 4.39584 8.0892C3.54302 8.0629 2.70899 7.83935 1.96314 7.43712C1.96246 7.4589 1.96246 7.48035 1.96246 7.50279C1.96246 10.0279 3.81376 12.135 6.2706 12.6145C5.4795 12.8223 4.65005 12.8528 3.84504 12.7036C4.52844 14.7743 6.512 16.2821 8.86242 16.3243C6.95975 17.7736 4.61021 18.5596 2.19162 18.5561C1.75812 18.5561 1.33074 18.5317 0.910156 18.4832C3.36609 20.0148 6.2244 20.8277 9.1436 20.8249C19.0233 20.8249 24.4259 12.8815 24.4259 5.99304C24.4259 5.76732 24.4205 5.54193 24.4103 5.31786C25.4624 4.5806 26.3703 3.66676 27.0912 2.61945Z" fill="white"/>
</svg>
