<svg width="160" height="90" viewBox="0 0 160 90" fill="none" xmlns="http://www.w3.org/2000/svg">
<rect width="160" height="90" fill="#4E40F3"/>
<path d="M19.3 26.9V35.9C19.3 38.9 19.4 40.1 21.6 40.1C22.8 40.1 25.2 40 25.2 40L25.4 44.3C25.4 44.3 22.5 44.9 20.9 44.9C15.8 44.9 14.3 43 14.3 36.6V26.9H11.5V22.4H14.3V16H19.3V22.4H25.2V26.9H19.3Z" fill="white"/>
<path d="M48.1 22.4V44.4H43.1V43.3C43.1 43.3 39.7 44.9 37.3 44.9C31 44.9 29.7 41.6 29.7 33.9V22.4H34.7V33.8C34.7 38.5 35 40.3 38.3 40.3C40.2 40.3 43.1 39.3 43.1 39.3V22.4H48.1Z" fill="white"/>
<path d="M55 13.2H60V44.3H55V13.2Z" fill="white"/>
<path d="M82.4 27.1C82.4 27.1 77.1 26.4 74.5 26.4C71.9 26.4 70.8 27 70.8 28.6C70.8 30 71.7 30.3 75.4 30.9C81.2 31.8 83.1 33.4 83.1 37.7C83.1 42.9 79.8 44.7 74.3 44.7C71.2 44.7 66.1 43.7 66.1 43.7L66.3 39.4C66.3 39.4 71.6 40.1 73.9 40.1C77 40.1 78.1 39.5 78.1 37.7C78.1 36.3 77.4 35.9 73.9 35.3C68.3 34.4 65.8 33.1 65.8 28.6C65.8 23.6 69.7 21.6 74.1 21.6C77.3 21.6 82.5 22.6 82.5 22.6L82.4 27.1Z" fill="white"/>
<path d="M105.6 38.3C105.6 39.8 106.1 40.3 107.4 40.5L107.2 44.8C103.8 44.8 102.6 44.3 101.3 43.3C101.3 43.3 97.5 44.8 94.1 44.8C89.9 44.8 87.7 42.1 87.7 37.8C87.7 33.1 90.3 31.5 95.1 31.1L100.6 30.7V29.4C100.6 27.7 99.5 26.8 97.9 26.8C94.6 26.8 89.4 27.2 89.4 27.2L89.2 22.9C89.2 22.9 94.9 21.9 98.1 21.9C102.9 21.9 105.6 23.9 105.6 29.3V38.3ZM95.7 34.8C93.8 35 92.8 35.8 92.8 37.6C92.8 39.4 93.6 40.5 95 40.5C97.3 40.5 100.5 39.6 100.5 39.6V34.5L95.7 34.8Z" fill="white"/>
<path d="M14.7 54.4H17.3V57.5C17.3 57.5 20.9 54.8 25.4 53.9V56.6C21.2 57.5 17.4 60 17.4 60V76.4H14.7V54.4Z" fill="white"/>
<path d="M46 74L46.1 76.2C46.1 76.2 41.1 76.8 37.7 76.8C31.1 76.8 29.2 72.8 29.2 65.4C29.2 56.9 32.9 53.9 38.3 53.9C44 53.9 47 56.9 47 64.3L46.9 66.4H31.9C31.9 71.6 33.4 74.3 38 74.3C41.1 74.4 46 74 46 74ZM44.2 64.3C44.2 58.5 42.3 56.3 38.2 56.3C34.2 56.3 31.8 58.5 31.8 64.3H44.2Z" fill="white"/>
<path d="M53.6 76.4V54.4H56.2V56C56.2 56 59.1 54.2 62.4 54.1C63.3 54.1 64.2 54.1 64.9 54.1C66.6 54.3 67.8 54.9 68.6 56C69.7 55.6 73.5 54 76.7 54C82.7 54 84.1 56.7 84.1 65V76.4H81.5V65.6C81.5 58.6 80.9 56.4 76.5 56.4C73.2 56.4 69.9 58.1 69.8 58.2C70.2 59.5 70.4 62 70.4 64.9V76.3H67.8V65.1C67.8 58.5 67.1 56.5 62.7 56.5C59.4 56.5 56.3 58.3 56.3 58.3V76.4H53.6Z" fill="white"/>
<path d="M109 65.1C109 73 107.2 76.9 99.8 76.9C92.4 76.9 90.5 73.4 90.5 65.1C90.5 57.3 93 54.1 99.8 54.1C106.2 54 109 57.4 109 65.1ZM106.3 65.1C106.3 58.8 104.4 56.4 99.9 56.4C94.8 56.4 93.3 58.5 93.3 65.1C93.3 71.8 94.2 74.5 99.9 74.5C105.5 74.5 106.3 71.4 106.3 65.1Z" fill="white"/>
<path d="M119 56.8V67.5C119 73 119.4 74.4 122.5 74.4C123.7 74.4 126.6 74.1 126.6 74.1L126.7 76.4C126.7 76.4 123.8 76.8 122.3 76.8C118 76.8 116.4 75.2 116.4 68.8V56.8H113.1V54.4H116.4V47.5H119V54.4H126.4V56.8H119Z" fill="white"/>
<path d="M147.6 74L147.7 76.2C147.7 76.2 142.7 76.8 139.3 76.8C132.7 76.8 130.8 72.8 130.8 65.4C130.8 56.9 134.5 53.9 139.9 53.9C145.6 53.9 148.6 56.9 148.6 64.3L148.5 66.4H133.5C133.5 71.6 135 74.3 139.6 74.3C142.8 74.4 147.6 74 147.6 74ZM145.8 64.3C145.8 58.5 143.9 56.3 139.8 56.3C135.8 56.3 133.4 58.5 133.4 64.3H145.8Z" fill="white"/>
</svg>
